#!OML:ASF E:\Mandelcareful walks\Project 1\Capture day 1\Session 1\Subject1.ASF
:FULLY-SPECIFIED
:DEGREES
190
root -6.05049 13.0355 -0.227848 157.971 68.052 136.675
lowerback 47.8117 -3.00678 9.70694
upperback 9.3891 3.00197 -1.31958
thorax -9.15208 2.22388 -7.39278
lowerneck -29.8411 -10.9493 -9.35096
upperneck 20.8779 -11.6567 2.54679
head 12.4834 -5.57483 0.188434
rclavicle -5.40694e-014 -6.36111e-015
rhumerus 53.55 -18.2672 -81.5134
rradius 32.6333
rwrist -28.6907
rhand -15.482 -38.1416
rfingers 7.12502
rthumb 10.6998 -67.8492
lclavicle -5.40694e-014 -6.36111e-015
lhumerus -25.8841 -24.8522 93.2241
lradius 47.3659
lwrist 29.8623
lhand -23.7697 -12.6476
lfingers 7.12502
lthumb 2.69975 17.3151
rfemur -71.9925 -43.2599 4.03239
rtibia 93.5276
rfoot -29 0.509576
rtoes -11.0591
lfemur -74.3621 -2.89731 -30.2662
ltibia 87.6283
lfoot -28.4494 1.17825
ltoes -6.56539
191
root -6.04729 13.0282 -0.252221 158.448 67.788 136.999
lowerback 47.6255 -2.93377 9.85258
upperback 9.4606 3.12005 -1.46091
thorax -9.0088 2.29497 -7.66199
lowerneck -29.9507 -11.07 -9.29435
upperneck 20.8847 -11.8883 2.70474
head 12.5262 -5.64895 0.186368
rclavicle 4.45278e-014 4.13472e-014
rhumerus 55.0319 -19.1615 -83.1031
rradius 30.5008
rwrist -26.8184
rhand -14.2007 -36.3303
rfingers 7.12502
rthumb 11.9355 -65.9701
lclavicle 4.45278e-014 4.13472e-014
lhumerus -25.6715 -25.1943 93.0535
lradius 47.4151
lwrist 29.781
lhand -23.8474 -13.5861
lfingers 7.12502
lthumb 2.62469 16.3775
rfemur -72.0382 -43.6227 3.89484
rtibia 93.5959
rfoot -28.996 0.514737
rtoes -11.392
lfemur -74.5264 -3.12051 -30.4407
ltibia 87.7241
lfoot -28.5163 1.06387
ltoes -6.3437
192
root -6.04341 13.0228 -0.276535 159.1 67.6411 137.563
lowerback 47.5484 -2.86234 10.0244
upperback 9.44393 3.25699 -1.57919
thorax -8.97688 2.35966 -7.92901
lowerneck -29.7141 -11.1096 -9.24123
upperneck 20.743 -12.0488 2.89481
head 12.4487 -5.69579 0.229453
rclavicle 1.04958e-013 -1.43125e-014
rhumerus 56.3722 -20.0721 -84.8153
rradius 28.3452
rwrist -24.7423
rhand -15.7917 -33.7769
rfingers 7.12502
rthumb 10.4011 -63.4997
lclavicle 1.04958e-013 -1.43125e-014
lhumerus -25.729 -25.6099 93.0508
lradius 47.5969
lwrist 28.9822
lhand -25.3142 -12.4512
lfingers 7.12502
lthumb 1.20814 17.5251
rfemur -71.957 -43.7832 3.8333
rtibia 93.6397
rfoot -28.9195 0.195375
rtoes -11.1453
lfemur -74.6671 -3.24286 -30.4815
ltibia 87.8484
lfoot -28.516 0.983115
ltoes -6.8894
193
root -6.03931 13.0137 -0.298406 159.865 67.509 138.214
lowerback 46.522 -2.64478 10.0452
upperback 10.4111 3.36138 -1.35011
thorax -8.98191 2.39863 -8.1644
lowerneck -29.4814 -11.1937 -9.28987
upperneck 20.55 -12.2248 3.09582
head 12.3611 -5.75679 0.288847
rclavicle 6.36111e-014 6.36111e-014
rhumerus 57.6412 -20.886 -86.8047
rradius 26.7492
rwrist -22.6519
rhand -14.7946 -36.5834
rfingers 7.12502
rthumb 11.3629 -66.2556
lclavicle 6.36111e-014 6.36111e-014
lhumerus -25.4088 -25.2281 92.7082
lradius 47.305
lwrist 29.8448
lhand -23.6111 -14.7066
lfingers 7.12502
lthumb 2.85297 15.254
rfemur -71.9753 -43.9165 3.84657
rtibia 93.7272
rfoot -28.8178 0.0365143
rtoes -11.2645
lfemur -74.8662 -3.40358 -30.4404
ltibia 87.9805
lfoot -28.4609 0.930566
ltoes -7.54026
194
root -6.03568 13.001 -0.318361 160.504 67.1948 138.652
lowerback 46.2883 -2.54741 9.93134
upperback 10.4649 3.40383 -1.33187
thorax -8.86377 2.42831 -8.09906
lowerneck -29.5743 -11.2873 -9.39681
upperneck 20.4408 -12.3229 3.19302
head 12.3548 -5.79482 0.318564
rclavicle -3.49861e-014 7.95139e-014
rhumerus 58.8614 -21.4985 -88.7689
rradius 25.7256
rwrist -20.9934
rhand -15.3414 -38.3762
rfingers 7.12502
rthumb 10.8355 -68.0767
lclavicle -3.49861e-014 7.95139e-014
lhumerus -25.1286 -25.0152 92.5348
lradius 47.5701
lwrist 29.8868
lhand -23.628 -14.2234
lfingers 7.12502
lthumb 2.83658 15.7375
rfemur -72.1559 -44.2805 3.75755
rtibia 93.8864
rfoot -28.7347 0.219993
rtoes -12.5379
lfemur -75.1287 -3.73865 -30.5423
ltibia 88.0717
lfoot -28.4053 0.91757
ltoes -7.98034
195
root -6.0305 12.9905 -0.333524 161.096 66.787 139.066
lowerback 46.1353 -2.44775 9.81098
upperback 10.5046 3.46066 -1.31229
thorax -8.78012 2.46332 -8.03728
lowerneck -29.7372 -11.3933 -9.46853
upperneck 20.3873 -12.4407 3.26697
head 12.3797 -5.83979 0.326124
rclavicle -1.43125e-013 3.81667e-014
rhumerus 59.6722 -21.9905 -90.1003
rradius 25.2136
rwrist -20.3331
rhand -14.8274 -40.4718
rfingers 7.12502
rthumb 11.3312 -70.1457
lclavicle -1.43125e-013 3.81667e-014
lhumerus -25.0162 -25.0598 92.4442
lradius 47.7082
lwrist 29.8276
lhand -23.2942 -13.4994
lfingers 7.12502
lthumb 3.15903 16.4569
rfemur -72.1533 -44.7214 3.54842
rtibia 94.0277
rfoot -28.4931 0.127367
rtoes -12.9555
lfemur -75.3317 -4.08038 -30.7185
ltibia 88.1203
lfoot -28.3121 0.84684
ltoes -8.03471
196
root -6.02165 12.9902 -0.345575 161.822 66.4961 139.742
lowerback 46.1751 -2.26408 10.0472
upperback 10.445 3.7723 -1.43237
thorax -8.78533 2.60345 -8.42544
lowerneck -29.4508 -11.635 -9.23416
upperneck 20.2203 -12.9592 3.44637
head 12.2934 -6.03571 0.266524
rclavicle -1.90833e-014 6.20208e-014
rhumerus 59.5866 -22.8422 -90.4921
rradius 25.4679
rwrist -20.8515
rhand -15.2077 -40.312
rfingers 7.12502
rthumb 10.9644 -70.0057
lclavicle -1.90833e-014 6.20208e-014
lhumerus -25.1243 -25.9906 92.3533
lradius 47.5315
lwrist 29.8241
lhand -23.5295 -13.9518
lfingers 7.12502
lthumb 2.93173 16.0078
rfemur -71.898 -44.9475 3.39576
rtibia 94.0893
rfoot -28.2633 -0.136585
rtoes -12.2219
lfemur -75.3677 -4.28387 -30.7343
ltibia 88.1511
lfoot -28.2728 0.710834
ltoes -7.77068
197
root -6.01325 12.9949 -0.364885 162.664 66.4425 140.539
lowerback 46.1574 -2.14921 10.0115
upperback 10.4775 3.9069 -1.36695
thorax -8.72658 2.67014 -8.39003
lowerneck -29.4424 -11.7758 -9.50845
upperneck 20.0751 -13.1368 3.79835
head 12.2957 -6.08929 0.402179
rclavicle -5.08889e-014 -8.5875e-014
rhumerus 59.0275 -22.3716 -89.7785
rradius 26.2571
rwrist -22.0943
rhand -15.7785 -40.676
rfingers 7.12502
rthumb 10.4138 -70.3981
lclavicle -5.08889e-014 -8.5875e-014
lhumerus -24.9796 -25.6939 92.2754
lradius 47.5935
lwrist 29.9321
lhand -23.9908 -13.4466
lfingers 7.12502
lthumb 2.48629 16.5186
rfemur -71.8181 -44.8597 3.48536
rtibia 94.1175
rfoot -27.9976 -0.213743
rtoes -12.5845
lfemur -75.4328 -4.34165 -30.5621
ltibia 88.2006
lfoot -28.372 0.561353
ltoes -7.35793
198
root -6.00678 12.9932 -0.395784 163.527 66.3189 141.266
lowerback 45.9823 -2.15608 10.1598
upperback 10.488 3.93509 -1.42247
thorax -8.65144 2.68856 -8.53303
lowerneck -29.2276 -11.9346 -9.75321
upperneck 19.8579 -13.4238 4.31895
head 12.2557 -6.1724 0.58276
rclavicle 8.5875e-014 3.97569e-014
rhumerus 57.9614 -21.6336 -88.3971
rradius 27.4503
rwrist -23.492
rhand -16.4653 -39.621
rfingers 7.12502
rthumb 9.75125 -69.3752
lclavicle 8.5875e-014 3.97569e-014
lhumerus -24.9089 -25.5728 92.1422
lradius 47.4424
lwrist 30.0523
lhand -24.0425 -13.7581
lfingers 7.12502
lthumb 2.43634 16.2078
rfemur -71.8957 -44.9568 3.57777
rtibia 94.1815
rfoot -27.7376 -0.171511
rtoes -14.2986
lfemur -75.6334 -4.57784 -30.4315
ltibia 88.2771
lfoot -28.4751 0.464959
ltoes -7.02548
199
root -5.99908 12.9849 -0.425242 164.208 65.9908 141.748
lowerback 45.7401 -2.20782 10.2295
upperback 10.4914 3.86917 -1.45779
thorax -8.59002 2.66241 -8.57411
lowerneck -29.0588 -12.0363 -10.0676
upperneck 19.7058 -13.5895 4.80902
head 12.246 -6.20922 0.783452
rclavicle 2.8625e-014 2.22639e-014
rhumerus 56.8229 -20.7461 -86.8791
rradius 28.766
rwrist -24.5309
rhand -18.3062 -34.3169
rfingers 7.12502
rthumb 7.97477 -64.1465
lclavicle 2.8625e-014 2.22639e-014
lhumerus -24.8972 -25.494 92.0754
lradius 47.3485
lwrist 30.0914
lhand -24.0611 -13.227
lfingers 7.12502
lthumb 2.41837 16.739
rfemur -71.8843 -45.3776 3.42282
rtibia 94.3362
rfoot -27.5533 -0.151631
rtoes -14.9403
lfemur -75.8651 -5.013 -30.4714
ltibia 88.3943
lfoot -28.5578 0.428436
ltoes -6.97115
200
root -5.99218 12.9743 -0.444886 164.64 65.7209 142.048
lowerback 45.6424 -2.17876 10.11
upperback 10.5257 3.84842 -1.44302
thorax -8.53938 2.6602 -8.48566
lowerneck -29.0951 -12.0548 -10.2351
upperneck 19.6044 -13.5977 5.01906
head 12.2444 -6.1977 0.883699
rclavicle -3.49861e-014 -5.88403e-014
rhumerus 56.1367 -19.7935 -85.4938
rradius 29.6528
rwrist -25.2746
rhand -15.6213 -40.1868
rfingers 7.12502
rthumb 10.5655 -69.9013
lclavicle -3.49861e-014 -5.88403e-014
lhumerus -24.879 -25.4161 92.0148
lradius 47.3159
lwrist 29.8526
lhand -23.7608 -13.4761
lfingers 7.12502
lthumb 2.70836 16.4864
rfemur -71.8078 -45.716 3.14463
rtibia 94.5675
rfoot -27.2598 0.0750786
rtoes -14.6228
lfemur -76.0031 -5.34893 -30.5229
ltibia 88.5093
lfoot -28.6532 0.382229
ltoes -6.88496
201
root -5.98674 12.9476 -0.465034 165.046 65.5217 142.47
lowerback 45.696 -2.20137 10.126
upperback 10.6251 3.86184 -1.43116
thorax -8.43795 2.68844 -8.48154
lowerneck -29.2627 -12.1645 -10.329
upperneck 19.4884 -13.7135 5.11808
head 12.252 -6.2404 0.904173
rclavicle -5.40694e-014 4.6118e-014
rhumerus 55.8725 -18.7437 -83.7283
rradius 29.7616
rwrist -26.6522
rhand -15.6135 -39.7423
rfingers 7.12502
rthumb 10.573 -69.4564
lclavicle -5.40694e-014 4.6118e-014
lhumerus -24.6353 -25.444 91.9111
lradius 47.3133
lwrist 29.7076
lhand -22.5851 -14.1638
lfingers 7.12502
lthumb 3.84377 15.7813
rfemur -71.6931 -46.0274 2.81941
rtibia 94.8905
rfoot -27.0238 0.529324
rtoes -14.6943
lfemur -76.1144 -5.57625 -30.5231
ltibia 88.6908
lfoot -28.6863 0.390857
ltoes -7.09903
202
root -5.97817 12.9426 -0.474884 165.42 65.4563 142.842
lowerback 45.6913 -2.06362 9.88862
upperback 10.7493 3.95177 -1.34939
thorax -8.30269 2.75005 -8.30278
lowerneck -29.4436 -12.2706 -10.4732
upperneck 19.4091 -13.8223 5.28268
head 12.2859 -6.27353 0.956134
rclavicle -1.30403e-013 -5.725e-014
rhumerus 55.9006 -18.0094 -83.1545
rradius 30.0786
rwrist -27.0669
rhand -15.2258 -37.4743
rfingers 7.12502
rthumb 10.9469 -67.1689
lclavicle -1.30403e-013 -5.725e-014
lhumerus -24.3496 -25.3662 91.7873
lradius 46.8768
lwrist 29.6651
lhand -23.4165 -13.7346
lfingers 7.12502
lthumb 3.04087 16.2235
rfemur -71.5867 -46.0646 2.69164
rtibia 95.0717
rfoot -26.9401 0.930867
rtoes -14.9943
lfemur -76.1523 -5.56282 -30.5051
ltibia 88.757
lfoot -28.7855 0.290475
ltoes -7.64177
203
root -5.97785 12.9549 -0.492604 165.62 65.4213 142.875
lowerback 45.5866 -1.93534 9.71621
upperback 10.758 4.00342 -1.40143
thorax -8.2682 2.77467 -8.29285
lowerneck -29.347 -12.2879 -10.4309
upperneck 19.286 -13.9029 5.39226
head 12.234 -6.29644 0.979706
rclavicle 2.22639e-014 -1.74931e-014
rhumerus 56.1967 -17.6525 -83.3057
rradius 29.8843
rwrist -26.6015
rhand -14.3322 -40.6818
rfingers 7.12502
rthumb 11.8088 -70.3288
lclavicle 2.22639e-014 -1.74931e-014
lhumerus -24.2929 -25.2387 91.6044
lradius 46.6055
lwrist 29.6726
lhand -23.3601 -13.9432
lfingers 7.12502
lthumb 3.09532 16.0141
rfemur -71.6627 -46.0986 2.62603
rtibia 95.0962
rfoot -26.8207 1.47261
rtoes -15.1363
lfemur -76.2428 -5.66607 -30.5778
ltibia 88.7328
lfoot -28.981 0.268314
ltoes -8.13765
204
root -5.97893 12.9462 -0.510993 165.904 65.3739 142.927
lowerback 45.4547 -1.85665 9.71904
upperback 10.7113 4.05779 -1.47667
thorax -8.27406 2.79196 -8.39968
lowerneck -29.1901 -12.3716 -10.4884
upperneck 19.1069 -14.0595 5.58325
head 12.1714 -6.35196 1.03445
rclavicle -3.18055e-015 7.63333e-014
rhumerus 56.7832 -17.5583 -83.8106
rradius 29.1419
rwrist -25.5566
rhand -12.7676 -41.9155
rfingers 7.12502
rthumb 13.3172 -71.47
lclavicle -3.18055e-015 7.63333e-014
lhumerus -24.3114 -25.423 91.5183
lradius 46.5729
lwrist 29.5499
lhand -23.5587 -13.0583
lfingers 7.12502
lthumb 2.90357 16.9017
rfemur -72.0059 -46.2238 2.67751
rtibia 95.1889
rfoot -26.6378 1.65673
rtoes -15.3507
lfemur -76.5505 -5.87022 -30.5871
ltibia 88.8339
lfoot -29.026 0.41879
ltoes -7.99049
